#!OML:ASF E:\Style4\Style4.ASF
:FULLY-SPECIFIED
:DEGREES
2630
root 0.187135 17.9265 -1.41814 9.43956 -2.88435 1.21701
lowerback 13.4452 2.43776 0.0890099
upperback 5.31186 3.20244 -0.158429
thorax -1.93137 1.58878 -0.687586
lowerneck -7.23297 -4.61122 -4.55436
upperneck -11.1901 -5.56714 5.62454
head -2.03161 -2.72324 2.55822
rclavicle -1.68967e-014 1.98785e-015
rhumerus 55.7664 -0.99306 -12.3805
rradius 71.5377
rwrist -87.2728
rhand -5.35473 14.8111
rfingers 7.12502
rthumb 20.4525 -14.1317
lclavicle -1.68967e-014 1.98785e-015
lhumerus 62.4638 -0.837838 12.1168
lradius 76.0176
lwrist 80.6361
lhand -0.453412 26.1849
lfingers 7.12502
lthumb 25.156 54.5474
rfemur -26.0006 1.21459 16.6586
rtibia 31.5628
rfoot -14.155 -13.4387
rtoes -16.1449
lfemur -25.5714 2.14625 -20.3293
ltibia 31.3304
lfoot -15.3701 10.8583
ltoes -12.5612
2631
root 0.190401 17.9213 -1.43723 9.53616 -2.93388 1.19485
lowerback 13.5798 2.4752 0.0996193
upperback 5.37764 3.25313 -0.112895
thorax -1.93631 1.61335 -0.658082
lowerneck -7.22853 -4.66914 -4.79166
upperneck -11.2894 -5.61968 5.79091
head -2.05216 -2.74377 2.65839
rclavicle -8.94531e-015 4.77083e-015
rhumerus 56.3132 -1.31935 -13.1886
rradius 70.5239
rwrist -86.7918
rhand -5.04378 14.705
rfingers 7.12502
rthumb 20.7513 -14.2055
lclavicle -8.94531e-015 4.77083e-015
lhumerus 62.9729 -0.645657 12.9933
lradius 74.7484
lwrist 79.4957
lhand 0.523878 26.2342
lfingers 7.12502
lthumb 26.0921 54.4619
rfemur -26.3275 1.22605 16.6764
rtibia 31.8494
rfoot -14.0785 -13.3921
rtoes -16.1799
lfemur -25.8816 2.14651 -20.3129
ltibia 31.5593
lfoot -15.5083 10.9003
ltoes -12.392
2632
root 0.195644 17.9172 -1.45625 9.60539 -2.97577 1.14154
lowerback 13.7446 2.51408 0.177638
upperback 5.46209 3.31398 -0.0690845
thorax -1.93377 1.64372 -0.670593
lowerneck -7.18751 -4.67507 -4.79993
upperneck -11.4886 -5.62899 5.72386
head -2.1268 -2.74748 2.64444
rclavicle -1.39149e-015 -3.97569e-016
rhumerus 56.78 -1.67494 -13.9876
rradius 69.5365
rwrist -86.2635
rhand -4.75628 14.5395
rfingers 7.12502
rthumb 21.0276 -14.3405
lclavicle -1.39149e-015 -3.97569e-016
lhumerus 63.5794 -0.423926 13.9014
lradius 73.5911
lwrist 78.7451
lhand 1.64245 26.1666
lfingers 7.12502
lthumb 27.1626 54.2317
rfemur -26.6166 1.21438 16.7367
rtibia 32.1489
rfoot -13.9791 -13.2932
rtoes -15.9904
lfemur -26.1738 2.1849 -20.2813
ltibia 31.8258
lfoot -15.5819 11.0134
ltoes -12.969
2633
root 0.201297 17.9089 -1.47672 9.66945 -2.99357 1.23288
lowerback 13.9025 2.53394 0.113774
upperback 5.56686 3.33062 -0.067557
thorax -1.912 1.65121 -0.64012
lowerneck -7.2794 -4.6744 -4.92515
upperneck -11.5154 -5.61219 5.79598
head -2.11594 -2.73451 2.68926
rclavicle 4.85035e-014 -7.95139e-015
rhumerus 57.3207 -2.01589 -14.8148
rradius 68.5546
rwrist -85.5629
rhand -4.31836 14.4314
rfingers 7.12502
rthumb 21.4482 -14.4013
lclavicle 4.85035e-014 -7.95139e-015
lhumerus 64.1764 -0.155785 14.7409
lradius 72.6765
lwrist 78.6996
lhand 0.840588 26.5485
lfingers 7.12502
lthumb 26.3953 54.7311
rfemur -26.9414 1.15959 16.6135
rtibia 32.4471
rfoot -14.0477 -13.1776
rtoes -15.7175
lfemur -26.4873 2.21339 -20.4166
ltibia 32.1368
lfoot -15.5942 11
ltoes -13.2645
2634
root 0.205191 17.8959 -1.4982 9.73546 -3.01988 1.36872
lowerback 14.0682 2.55505 -0.0193047
upperback 5.6687 3.33936 -0.0792085
thorax -1.90058 1.65398 -0.583894
lowerneck -7.34345 -4.68483 -4.98947
upperneck -11.598 -5.61629 5.82617
head -2.12997 -2.73402 2.71131
rclavicle -1.98785e-016 4.37326e-015
rhumerus 57.8911 -2.29829 -15.636
rradius 67.586
rwrist -84.8722
rhand -3.86963 14.4646
rfingers 7.12502
rthumb 21.8791 -14.3184
lclavicle -1.98785e-016 4.37326e-015
lhumerus 64.6081 0.157746 15.445
lradius 71.933
lwrist 78.8293
lhand 0.108957 26.8681
lfingers 7.12502
lthumb 25.6947 55.1539
rfemur -27.3126 1.15588 16.4197
rtibia 32.7377
rfoot -14.2721 -13.1195
rtoes -15.6697
lfemur -26.8392 2.21822 -20.593
ltibia 32.4763
lfoot -15.5568 10.8859
ltoes -12.2753
2635
root 0.209734 17.8836 -1.52023 9.89318 -3.04112 1.31733
lowerback 14.1985 2.5892 0.0773056
upperback 5.70986 3.39634 -0.0499788
thorax -1.92272 1.68269 -0.621368
lowerneck -7.23699 -4.72638 -5.00736
upperneck -11.7894 -5.6742 5.7962
head -2.20946 -2.76313 2.71263
rclavicle -6.36111e-015 -5.1684e-015
rhumerus 58.4168 -2.51372 -16.4575
rradius 66.6452
rwrist -84.2895
rhand -3.64698 14.4274
rfingers 7.12502
rthumb 22.0929 -14.3304
lclavicle -6.36111e-015 -5.1684e-015
lhumerus 65.0262 0.492255 16.1105
lradius 71.1097
lwrist 78.6706
lhand 0.816648 26.9353
lfingers 7.12502
lthumb 26.3723 55.1213
rfemur -27.7491 1.13668 16.4518
rtibia 33.0074
rfoot -14.3191 -13.0573
rtoes -15.8328
lfemur -27.3049 2.20718 -20.554
ltibia 32.8349
lfoot -15.6109 10.8188
ltoes -11.5584
2636
root 0.214744 17.8727 -1.54292 10.019 -3.01162 1.22197
lowerback 14.3587 2.61343 0.245062
upperback 5.76129 3.45065 0.00359251
thorax -1.94716 1.71065 -0.674221
lowerneck -7.09315 -4.76494 -5.06603
upperneck -11.9628 -5.72608 5.79849
head -2.28809 -2.78851 2.73313
rclavicle -1.21259e-014 -3.57812e-015
rhumerus 58.9474 -2.70177 -17.3123
rradius 65.7046
rwrist -83.6041
rhand -3.57944 14.3145
rfingers 7.12502
rthumb 22.1578 -14.4357
lclavicle -1.21259e-014 -3.57812e-015
lhumerus 65.6543 0.677382 17.0791
lradius 70.1136
lwrist 78.1916
lhand 1.85256 26.8882
lfingers 7.12502
lthumb 27.3636 54.9217
rfemur -28.1148 1.06566 16.5571
rtibia 33.2784
rfoot -14.3297 -13.0012
rtoes -16.0478
lfemur -27.7369 2.25953 -20.4797
ltibia 33.1922
lfoot -15.6554 10.7365
ltoes -11.1945
